<svg width="20" height="13" viewBox="0 0 20 13" fill="none" xmlns="http://www.w3.org/2000/svg">
<path d="M12.9748 11.4674H7.75513V2.09027H12.9748V11.4674Z" fill="#FF5F00"/>
<path d="M8.07377 6.76799C8.07377 4.87133 8.94623 3.16434 10.3498 2.06427C9.32556 1.26768 8.03584 0.774544 6.67024 0.774544C3.37005 0.812477 0.714722 3.4678 0.714722 6.76799C0.714722 10.0682 3.37005 12.7235 6.67024 12.7235C8.07377 12.7235 9.32556 12.2304 10.3498 11.4338C8.98417 10.3717 8.07377 8.66466 8.07377 6.76799Z" fill="#EB001B"/>
<path d="M19.9999 6.76799C19.9999 10.0682 17.3446 12.7235 14.0444 12.7235C12.6409 12.7235 11.3891 12.2304 10.3649 11.4338C11.7684 10.3337 12.6409 8.66466 12.6409 6.73006C12.6409 4.79547 11.7305 3.16434 10.3649 2.06427C11.3891 1.26768 12.6409 0.812476 14.0444 0.812476C17.3446 0.812476 19.9999 3.4678 19.9999 6.76799Z" fill="#F79E1B"/>
</svg>
